<svg width="766" height="450" viewBox="0 0 766 450" fill="none" xmlns="http://www.w3.org/2000/svg">
<g id="Flash">
<g id="Flash-trapezoid">
<path id="trapezoid-2" d="M756.813 275.777H744.147L765.775 254.159V266.819C762.25 270.343 760.279 272.313 756.813 275.777Z" fill="white"/>
<path id="trapezoid-1" d="M741.339 261.086H727.597L751.078 237.617V251.352C747.254 255.174 745.103 257.324 741.339 261.086Z" fill="white"/>
</g>
<g id="Flash-circle">
<path id="circle-4" d="M288.04 73.8111C288.04 76.5581 285.829 78.7676 283.081 78.7676C280.332 78.7676 278.122 76.5581 278.122 73.8111C278.122 71.0641 280.342 68.8545 283.081 68.8545C285.819 68.8545 288.04 71.0641 288.04 73.8111Z" fill="white"/>
<path id="circle-3" d="M331.535 73.8111C331.535 76.5581 329.325 78.7676 326.576 78.7676C323.828 78.7676 321.617 76.5581 321.617 73.8111C321.617 71.0641 323.828 68.8545 326.576 68.8545C329.325 68.8545 331.535 71.0641 331.535 73.8111Z" fill="white"/>
<path id="circle-2" d="M374.971 73.8111C374.971 76.5581 372.761 78.7676 370.012 78.7676C367.264 78.7676 365.053 76.5581 365.053 73.8111C365.053 71.0641 367.264 68.8545 370.012 68.8545C372.761 68.8545 374.971 71.0641 374.971 73.8111Z" fill="white"/>
<path id="circle-1" d="M418.407 73.8111C418.407 76.5581 416.197 78.7676 413.448 78.7676C410.7 78.7676 408.489 76.5581 408.489 73.8111C408.489 71.0641 410.7 68.8545 413.448 68.8545C416.197 68.8545 418.407 71.0641 418.407 73.8111Z" fill="white"/>
</g>
<g id="Flash-line">
<path id="line-3" d="M628.238 5.13573H579.604C578.17 5.13573 577.035 4.0011 577.035 2.56787C577.035 1.13464 578.17 0 579.604 0H628.238C629.672 0 630.807 1.13464 630.807 2.56787C630.807 4.0011 629.672 5.13573 628.238 5.13573Z" fill="white"/>
<path id="line-2" d="M693.959 5.13573H645.325C643.951 5.13573 642.756 4.0011 642.756 2.56787C642.756 1.13464 643.892 0 645.325 0H693.959C695.393 0 696.529 1.13464 696.529 2.56787C696.529 4.0011 695.393 5.13573 693.959 5.13573Z" fill="white"/>
<path id="line-1" d="M759.681 5.13573H711.047C709.613 5.13573 708.478 4.0011 708.478 2.56787C708.478 1.13464 709.613 0 711.047 0H759.681C761.115 0 762.25 1.13464 762.25 2.56787C762.25 4.0011 761.115 5.13573 759.681 5.13573Z" fill="white"/>
</g>
<g id="Flash-parallelogram">
<path id="parallelogram-4" d="M479.229 225.196H460.11L450.013 235.289H469.132L479.229 225.196Z" fill="white"/>
<path id="parallelogram-3" d="M449.057 225.196H429.938L419.901 235.289H439.02L449.057 225.196Z" fill="white"/>
<path id="parallelogram-2" d="M418.945 225.196H399.826L389.729 235.289H408.848L418.945 225.196Z" fill="white"/>
<path id="parallelogram-1" d="M388.773 225.196H369.654L359.616 235.289H378.735L388.773 225.196Z" fill="white"/>
</g>
<g id="Flash-square">
<path id="square-5" d="M0.00017786 449.975H7.70752L7.70752 442.271H0.00017786L0.00017786 449.975Z" fill="white"/>
<path id="square-4" d="M26.3485 442.271H18.6411V449.974H26.3485V442.271Z" fill="white"/>
<path id="square-3" d="M44.9896 442.271H37.2822V449.974H44.9896V442.271Z" fill="white"/>
<path id="square-2" d="M63.5706 442.271H55.8633V449.974H63.5706V442.271Z" fill="white"/>
<path id="square-1" d="M82.2117 442.271H74.5044V449.974H82.2117V442.271Z" fill="white"/>
</g>
</g>
</svg>
