<svg width="60" height="60" viewBox="0 0 60 60" fill="none" xmlns="http://www.w3.org/2000/svg">
<path d="M49.586 59L59 49.5859V10.4141L49.586 1H10.4141L1 10.4141V49.5859L10.4141 59H49.586Z" stroke="white" stroke-width="2"/>
<path d="M23.8531 46.2762C21.9427 45.4596 20.2729 44.3367 18.8438 42.9075C17.4146 41.4783 16.2917 39.8085 15.475 37.8981C14.6583 35.9877 14.25 33.9387 14.25 31.7512H16.875C16.875 35.3971 18.151 38.496 20.7031 41.0481C23.2552 43.6002 26.3542 44.8762 30 44.8762C33.6458 44.8762 36.7448 43.6002 39.2969 41.0481C41.849 38.496 43.125 35.3971 43.125 31.7512C43.125 28.1054 41.8854 25.0064 39.4062 22.4544C36.9271 19.9023 33.8646 18.6262 30.2188 18.6262H29.2125L32.4062 21.82L30.6125 23.6575L24.1813 17.2262L30.6125 10.795L32.4062 12.5887L28.9938 16.0012H30C32.1875 16.0012 34.2365 16.4096 36.1469 17.2262C38.0573 18.0429 39.7271 19.1658 41.1562 20.595C42.5854 22.0242 43.7083 23.6939 44.525 25.6044C45.3417 27.5148 45.75 29.5637 45.75 31.7512C45.75 33.9387 45.3417 35.9877 44.525 37.8981C43.7083 39.8085 42.5854 41.4783 41.1562 42.9075C39.7271 44.3367 38.0573 45.4596 36.1469 46.2762C34.2365 47.0929 32.1875 47.5012 30 47.5012C27.8125 47.5012 25.7635 47.0929 23.8531 46.2762Z" fill="white"/>
</svg>
