<svg width="52" height="56" viewBox="0 0 52 56" fill="none" xmlns="http://www.w3.org/2000/svg">
<path d="M9.90039 0.5V3.0459H15.0996V5.59082H20.2998V8.13672H22.9004V10.6816H28.0996V13.2275H33.2998V15.7725H35.9004V18.3184H41.0996V20.8633H46.2998V23.4092H48.9004V25.9541H51.5V30.0459H48.9004V32.5908H46.2998V35.1367H41.0996V37.6816H35.9004V40.2275H33.2998V42.7725H28.0996V45.3184H22.9004V47.8633H20.2998V50.4092H15.0996V52.9541H9.90039V55.5H3.09961V52.9541H0.5V3.0459H3.09961V0.5H9.90039ZM8.2041 45.3125H11.1113V43.4453H14.9248V41.5791H18.7373V39.7129H20.6445V37.8457H24.458V35.9795H28.2715V34.1123H30.1777V32.2461H33.9912V30.3789H37.8047V25.6455H33.9912V23.7793H30.1777V21.9121H28.2715V20.0459H24.458V18.1787H20.6445V16.3125H18.7373V14.4453H14.9248V12.5791H11.1113V10.7129H8.2041V45.3125Z" fill="white" stroke="white"/>
</svg>
