<svg width="44" height="30" viewBox="0 0 44 30" fill="none" xmlns="http://www.w3.org/2000/svg">
<path d="M28.0063 18.004H16.0036V22.0049H28.0063V18.004Z" fill="white"/>
<path d="M42.0095 12.0027V8.00182H40.0091V4.00091H38.0086V2.00045H36.0082V0H28.0064V2.00045H16.0036V0H8.00182V2.00045H6.00136V4.00091H4.00091V8.00182H2.00045V12.0027H0V28.0064H2.00045V30.0068H8.00182V28.0064H10.0023V26.0059H12.0027V24.0055H14.0032V18.0041L16.0036 18.004L16.0036 16.0036H28.0064L28.0063 18.004L30.0068 18.0041V24.0055H32.0073V26.0059H34.0077V28.0064H36.0082V30.0068H42.0095V28.0064H44.01V12.0027H42.0095ZM8.00182 8.00182V6.00136H10.0023V4.00091H12.0027V6.00136H14.0032V8.00182H16.0036V10.0023H14.0032V12.0027H12.0027V14.0032H10.0023V12.0027H8.00182V10.0023H6.00136V8.00182H8.00182ZM24.0055 10.0023H22.005V12.0027H20.0045V10.0023H18.0041V8.00182H20.0045V6.00136H22.005V8.00182H24.0055V10.0023ZM38.0086 12.0027H34.0077V16.0036H30.0068V12.0027H26.0059V8.00182H30.0068V4.00091H34.0077V8.00182H38.0086V12.0027Z" fill="white"/>
<path d="M34.0077 8.00182H30.0068V12.0027H34.0077V8.00182Z" fill="white"/>
</svg>
