<svg width="48" height="48" viewBox="0 0 48 48" fill="none" xmlns="http://www.w3.org/2000/svg">
<path d="M34 30V28H32V26H34V22H32V20H34V18H36V20H38V28H36V30H34Z" fill="white"/>
<path d="M46 20V28H44V32H42V34H40V36H38V34H36V32H38V30H40V28H42V20H40V18H38V16H36V14H38V12H40V14H42V16H44V20H46Z" fill="white"/>
<path d="M22 4V6H20V8H18V10H16V12H14V14H12V16H2V32H12V34H14V36H16V38H18V40H20V42H22V44H28V4H22ZM24 38H22V36H20V34H18V32H16V30H14V28H6V20H14V18H16V16H18V14H20V12H22V10H24V38Z" fill="white"/>
</svg>
