<svg width="192" height="51" viewBox="0 0 192 51" fill="none" xmlns="http://www.w3.org/2000/svg">
<path d="M135.456 6.64148H127.726V20.1678H150.413V6.64148H139.969C139.879 6.64149 139.791 6.6195 139.712 6.57745C139.633 6.5354 139.566 6.47458 139.516 6.40035C139.466 6.32611 139.435 6.24074 139.426 6.15175C139.417 6.06276 139.43 5.97288 139.463 5.89002L139.504 5.79162C139.586 5.59098 139.726 5.41928 139.906 5.29825C140.086 5.17722 140.298 5.11231 140.514 5.11172H152.046V2.42792H146.848C146.777 2.42792 146.706 2.41381 146.639 2.38638C146.573 2.35896 146.513 2.31876 146.462 2.26809C146.412 2.21742 146.371 2.15726 146.344 2.09105C146.317 2.02484 146.303 1.95388 146.303 1.88222V0.307724H143.243V1.88669C143.243 2.03142 143.186 2.17022 143.083 2.27256C142.981 2.3749 142.842 2.4324 142.697 2.4324H135.384C135.239 2.4324 135.1 2.3749 134.998 2.27256C134.896 2.17022 134.838 2.03142 134.838 1.88669V0.307724H131.779V1.88669C131.779 2.03142 131.721 2.17022 131.619 2.27256C131.517 2.3749 131.378 2.4324 131.233 2.4324H126.022V5.11619H136.001C136.091 5.11654 136.179 5.13869 136.258 5.18073C136.337 5.22276 136.404 5.28342 136.454 5.35744C136.505 5.43146 136.536 5.51662 136.546 5.60552C136.556 5.69443 136.544 5.7844 136.511 5.86766L136.471 5.96606C136.388 6.16656 136.247 6.3378 136.066 6.45805C135.885 6.57831 135.673 6.64215 135.456 6.64148V6.64148ZM131.059 12.774H147.126C147.199 12.7728 147.271 12.7863 147.339 12.8137C147.407 12.8412 147.469 12.882 147.52 12.9337C147.572 12.9855 147.613 13.0471 147.64 13.1149C147.668 13.1828 147.681 13.2554 147.68 13.3286V13.5567C147.679 13.6284 147.664 13.6991 147.635 13.7649C147.607 13.8307 147.566 13.8902 147.514 13.94C147.463 13.9899 147.402 14.0291 147.335 14.0554C147.268 14.0817 147.197 14.0947 147.126 14.0935H131.059C130.914 14.0935 130.775 14.036 130.673 13.9337C130.57 13.8313 130.513 13.6925 130.513 13.5478V13.3286C130.511 13.256 130.524 13.1838 130.551 13.1163C130.577 13.0488 130.617 12.9873 130.668 12.9356C130.719 12.8838 130.78 12.8429 130.847 12.8151C130.914 12.7873 130.986 12.7733 131.059 12.774V12.774ZM130.513 16.907V16.8444C130.512 16.7726 130.526 16.7013 130.553 16.6349C130.58 16.5684 130.621 16.508 130.671 16.4572C130.722 16.4064 130.783 16.3662 130.849 16.339C130.915 16.3118 130.987 16.2981 131.059 16.2987H147.126C147.27 16.2987 147.409 16.3562 147.511 16.4585C147.614 16.5609 147.671 16.6997 147.671 16.8444V16.907C147.667 17.0486 147.607 17.1829 147.505 17.2814C147.403 17.3799 147.267 17.4349 147.126 17.4348H131.059C130.917 17.4349 130.781 17.3799 130.679 17.2814C130.577 17.1829 130.517 17.0486 130.513 16.907V16.907ZM147.126 10.5867H131.059C130.914 10.5867 130.775 10.5292 130.673 10.4268C130.57 10.3245 130.513 10.1857 130.513 10.041V9.92019C130.513 9.77546 130.57 9.63666 130.673 9.53432C130.775 9.43198 130.914 9.37448 131.059 9.37448H147.126C147.27 9.37448 147.409 9.43198 147.511 9.53432C147.614 9.63666 147.671 9.77546 147.671 9.92019V10.041C147.671 10.1857 147.614 10.3245 147.511 10.4268C147.409 10.5292 147.27 10.5867 147.126 10.5867V10.5867Z" fill="white"/>
<path d="M121.656 8.06384H124.993C124.993 3.50139 123.025 1.53327 118.199 1.53327V4.7583C119.898 4.7583 120.346 4.93275 120.883 5.42478C121.218 5.72447 121.656 6.03758 121.656 8.06384Z" fill="white"/>
<path d="M147.627 25.7115C147.555 25.7115 147.483 25.6972 147.417 25.6695C147.35 25.6418 147.29 25.6012 147.239 25.5501C147.188 25.4989 147.148 25.4383 147.121 25.3715C147.094 25.3048 147.08 25.2334 147.081 25.1613V24.714C147.08 24.642 147.094 24.5705 147.121 24.5038C147.148 24.4371 147.188 24.3764 147.239 24.3253C147.29 24.2741 147.35 24.2335 147.417 24.2058C147.483 24.1781 147.555 24.1639 147.627 24.1639H152.046V21.319H131.291C125.476 21.319 125.32 19.5746 125.32 17.6691V13.6792C125.32 13.1049 125.208 12.5361 124.988 12.0054C124.769 11.4747 124.447 10.9924 124.041 10.5861C123.636 10.1798 123.154 9.85755 122.623 9.63765C122.093 9.41775 121.524 9.30457 120.95 9.30457H117.604V12.4714H120.453C120.887 12.475 121.301 12.6503 121.605 12.9588C121.91 13.2674 122.079 13.6841 122.077 14.1175V17.177C122.077 19.7087 120.69 20.9388 117.497 20.9388V24.1594C120.019 24.1594 121.947 23.5063 123.244 22.2136C123.345 22.119 123.478 22.0662 123.616 22.0662C123.754 22.0662 123.886 22.119 123.987 22.2136C125.83 23.9044 128.809 24.1773 131.273 24.1773H143.453C143.599 24.1773 143.739 24.2352 143.842 24.3384C143.946 24.4416 144.004 24.5815 144.004 24.7275V25.2374C144.002 25.3065 143.986 25.3747 143.957 25.4375C143.928 25.5004 143.887 25.5566 143.835 25.6027C143.784 25.6488 143.723 25.6839 143.657 25.7057C143.592 25.7275 143.522 25.7355 143.453 25.7294L117.604 25.7652V28.6055H121.352C121.561 28.6052 121.762 28.6846 121.914 28.8276C122.067 28.9707 122.158 29.1664 122.171 29.3749C122.386 33.0114 123.803 34.8006 127.65 34.8006H129.838V31.8485H127.811C126.022 31.8485 125.517 30.6005 125.4 29.2183C125.395 29.1431 125.405 29.0676 125.43 28.9965C125.455 28.9253 125.494 28.86 125.545 28.8046C125.596 28.7493 125.658 28.705 125.727 28.6746C125.796 28.6442 125.871 28.6283 125.946 28.6279H143.471C143.616 28.6279 143.756 28.6852 143.859 28.7875C143.962 28.8897 144.02 29.0285 144.021 29.1736V30.1532C144.021 30.3688 143.979 30.5822 143.896 30.7814C143.814 30.9806 143.693 31.1615 143.541 31.314C143.388 31.4664 143.207 31.5873 143.008 31.6698C142.809 31.7523 142.595 31.7948 142.38 31.7948H134.512V34.8006H143.257C144.271 34.8006 145.244 34.3977 145.961 33.6805C146.678 32.9633 147.081 31.9905 147.081 30.9762V29.187C147.081 29.1154 147.095 29.0444 147.123 28.9782C147.15 28.912 147.19 28.8518 147.241 28.8012C147.291 28.7505 147.352 28.7103 147.418 28.6829C147.484 28.6554 147.555 28.6413 147.627 28.6413H152.216V25.7115H147.627Z" fill="white"/>
<path d="M108.537 28.3519C108.4 28.1943 108.319 27.9965 108.304 27.7883C108.289 27.5801 108.343 27.3729 108.457 27.1978C110.461 24.1338 112.272 18.4576 112.384 14.3738L112.42 12.6964H99.4481C99.3762 12.697 99.305 12.6833 99.2385 12.6561C99.172 12.6288 99.1116 12.5887 99.0609 12.5379C99.0101 12.4871 98.9699 12.4267 98.9427 12.3602C98.9155 12.2937 98.9017 12.2225 98.9023 12.1507V4.99388C98.9023 4.84915 98.9598 4.71035 99.0622 4.60801C99.1645 4.50567 99.3033 4.44817 99.4481 4.44817H107.884C107.956 4.44817 108.027 4.46229 108.093 4.48971C108.159 4.51714 108.219 4.55734 108.27 4.60801C108.321 4.65868 108.361 4.71884 108.388 4.78505C108.416 4.85126 108.43 4.92222 108.43 4.99388V6.17475C108.43 6.61013 108.257 7.02767 107.949 7.33553C107.641 7.64339 107.224 7.81634 106.788 7.81634H101.868V11.0369H107.316C107.89 11.0375 108.459 10.9249 108.99 10.7055C109.521 10.4862 110.003 10.1644 110.409 9.7585C110.815 9.35264 111.138 8.87068 111.358 8.34018C111.577 7.80969 111.691 7.24105 111.691 6.66678V1.3305H95.5342V34.8019H98.8174V16.5118C98.8174 16.3809 98.869 16.2553 98.9612 16.1623C99.0533 16.0693 99.1785 16.0165 99.3094 16.0153C99.4325 16.0148 99.5513 16.0605 99.6424 16.1433C99.7335 16.2261 99.7902 16.34 99.8014 16.4626C100.11 19.965 101.354 24.3396 103.429 27.3678C103.555 27.556 103.615 27.7805 103.599 28.0063C103.584 28.232 103.494 28.4464 103.344 28.6158C102.146 29.9967 100.745 31.1868 99.1886 32.145L100.607 34.8556C102.484 33.682 104.192 32.2568 105.683 30.6197C105.736 30.5627 105.799 30.5173 105.87 30.4862C105.941 30.4551 106.018 30.4391 106.095 30.4391C106.172 30.4391 106.249 30.4551 106.32 30.4862C106.39 30.5173 106.454 30.5627 106.506 30.6197C107.923 32.1788 109.477 33.607 111.149 34.8869L112.988 32.3999C111.375 31.1999 109.884 29.844 108.537 28.3519V28.3519ZM103.433 15.8275H108.537C108.616 15.8273 108.693 15.844 108.765 15.8766C108.837 15.9092 108.9 15.9569 108.952 16.0163C109.003 16.0758 109.041 16.1457 109.063 16.2212C109.085 16.2966 109.09 16.376 109.078 16.4537C108.631 19.3574 107.725 22.1716 106.395 24.7914C106.347 24.874 106.278 24.9426 106.195 24.9902C106.112 25.0379 106.018 25.063 105.923 25.063C105.827 25.063 105.733 25.0379 105.65 24.9902C105.568 24.9426 105.499 24.874 105.451 24.7914C104.324 22.9038 103.214 19.2583 102.883 16.4134C102.877 16.3377 102.887 16.2615 102.912 16.1898C102.937 16.118 102.976 16.0522 103.028 15.9966C103.08 15.9411 103.143 15.8969 103.212 15.867C103.282 15.8371 103.358 15.8221 103.433 15.823V15.8275Z" fill="white"/>
<path d="M88.5295 22.554H94.492V19.4945H91.8753C91.7991 19.4949 91.7236 19.4792 91.6538 19.4485C91.584 19.4177 91.5216 19.3726 91.4705 19.316C91.4194 19.2594 91.3808 19.1926 91.3573 19.1201C91.3338 19.0476 91.3259 18.9709 91.3341 18.8951L91.8574 13.8495C91.8708 13.7155 91.9336 13.5912 92.0337 13.5011C92.1338 13.4109 92.2639 13.3613 92.3986 13.362H94.492V10.2309H88.4937C88.4219 10.2315 88.3507 10.2178 88.2842 10.1906C88.2177 10.1634 88.1573 10.1232 88.1065 10.0724C88.0557 10.0216 88.0156 9.9612 87.9883 9.89472C87.9611 9.82824 87.9474 9.75702 87.948 9.68519V6.94771C87.9474 6.87588 87.9611 6.80466 87.9883 6.73818C88.0156 6.6717 88.0557 6.61131 88.1065 6.56051C88.1573 6.50972 88.2177 6.46955 88.2842 6.44233C88.3507 6.41512 88.4219 6.40141 88.4937 6.40201H94.2639V3.39616H88.4937C88.4221 3.39616 88.3511 3.38204 88.2849 3.35462C88.2187 3.32719 88.1585 3.287 88.1079 3.23632C88.0572 3.18565 88.017 3.12549 87.9896 3.05928C87.9621 2.99308 87.948 2.92211 87.948 2.85045V0.108505H84.5038V2.85045C84.5038 2.92211 84.4897 2.99308 84.4623 3.05928C84.4348 3.12549 84.3946 3.18565 84.344 3.23632C84.2933 3.287 84.2331 3.32719 84.1669 3.35462C84.1007 3.38204 84.0298 3.39616 83.9581 3.39616H78.6487V6.40201H83.9581C84.1028 6.40201 84.2416 6.4595 84.344 6.56184C84.4463 6.66418 84.5038 6.80298 84.5038 6.94771V9.6986C84.5038 9.77027 84.4897 9.84123 84.4623 9.90744C84.4348 9.97365 84.3946 10.0338 84.344 10.0845C84.2933 10.1352 84.2331 10.1753 84.1669 10.2028C84.1007 10.2302 84.0298 10.2443 83.9581 10.2443H77.9956V13.3754H80.1337C80.2696 13.3747 80.4008 13.4248 80.5018 13.5158C80.6027 13.6068 80.666 13.7322 80.6794 13.8674L81.1714 18.9085C81.1789 18.9842 81.1705 19.0606 81.1467 19.1328C81.1229 19.205 81.0843 19.2715 81.0334 19.3279C80.9824 19.3843 80.9202 19.4295 80.8508 19.4605C80.7814 19.4915 80.7062 19.5076 80.6302 19.5079H77.9956V22.5674H84.0118C84.1569 22.5686 84.2957 22.6271 84.3979 22.7301C84.5001 22.8332 84.5575 22.9724 84.5575 23.1176V25.2736C84.5575 25.4183 84.5 25.5571 84.3976 25.6594C84.2953 25.7618 84.1565 25.8193 84.0118 25.8193H78.4966V28.8788H84.0118C84.0842 28.8788 84.1559 28.8932 84.2227 28.9212C84.2895 28.9492 84.35 28.9902 84.4008 29.0418C84.4516 29.0934 84.4916 29.1546 84.5185 29.2219C84.5454 29.2891 84.5587 29.361 84.5575 29.4335V34.8771H88.0017V29.4335C87.9993 29.2902 88.0533 29.1518 88.152 29.048C88.2507 28.9443 88.3863 28.8835 88.5295 28.8788H94.5457V25.8193H88.5295C88.3848 25.8193 88.246 25.7618 88.1436 25.6594C88.0413 25.5571 87.9838 25.4183 87.9838 25.2736V23.1042C87.9832 23.0321 87.9969 22.9607 88.0241 22.894C88.0512 22.8272 88.0913 22.7666 88.142 22.7154C88.1928 22.6643 88.2531 22.6237 88.3196 22.596C88.3861 22.5683 88.4575 22.554 88.5295 22.554ZM84.562 13.362H88.0062C88.0826 13.3616 88.1582 13.3773 88.2282 13.408C88.2981 13.4387 88.3609 13.4838 88.4123 13.5403C88.4638 13.5968 88.5028 13.6635 88.5268 13.736C88.5509 13.8086 88.5594 13.8853 88.5519 13.9614L88.0285 19.0069C88.0141 19.1413 87.9503 19.2656 87.8495 19.3557C87.7487 19.4458 87.618 19.4952 87.4828 19.4945H85.054C84.9189 19.494 84.7887 19.4434 84.6887 19.3526C84.5887 19.2617 84.526 19.1369 84.5127 19.0024L84.0565 13.9614C84.0491 13.8872 84.057 13.8123 84.0797 13.7412C84.1024 13.6702 84.1394 13.6046 84.1885 13.5484C84.2375 13.4923 84.2975 13.4467 84.3648 13.4147C84.4322 13.3826 84.5053 13.3647 84.5799 13.362H84.562Z" fill="white"/>
<path d="M191.229 13.2001V10.0691H183.25C183.192 10.0691 183.135 10.0506 183.088 10.0163C183.041 9.982 183.007 9.93364 182.989 9.87825C182.972 9.82287 182.972 9.76336 182.991 9.70838C183.01 9.6534 183.046 9.60582 183.093 9.57255C186.072 7.48414 188.749 4.99624 191.051 2.17869L188.327 0.112168C187.817 0.751807 187.275 1.38697 186.698 2.00872C186.544 2.17712 186.357 2.31176 186.149 2.40415C185.94 2.49653 185.714 2.54466 185.486 2.54548H175.646C175.501 2.54548 175.362 2.48798 175.26 2.38564C175.157 2.2833 175.1 2.1445 175.1 1.99977V0.0942764H171.66V1.99977C171.66 2.1445 171.603 2.2833 171.5 2.38564C171.398 2.48798 171.259 2.54548 171.114 2.54548H159.99V5.67657H171.074C171.219 5.67657 171.359 5.73392 171.462 5.83613C171.565 5.93835 171.623 6.07714 171.624 6.22228V9.55913C171.623 9.70427 171.565 9.84307 171.462 9.94528C171.359 10.0475 171.219 10.1048 171.074 10.1048H156.394V13.2359H169.719C169.783 13.2346 169.846 13.2559 169.896 13.2963C169.946 13.3366 169.98 13.3934 169.993 13.4565C170.005 13.5196 169.994 13.5851 169.963 13.6413C169.932 13.6975 169.882 13.7409 169.822 13.7637C165.235 15.6069 160.44 16.8808 155.544 17.5568L155.906 20.7461C157.199 20.5874 158.483 20.3619 159.753 20.0707C159.833 20.0541 159.915 20.0555 159.995 20.0747C160.074 20.094 160.148 20.1306 160.211 20.182C160.275 20.2334 160.326 20.2982 160.361 20.3718C160.396 20.4454 160.415 20.5259 160.415 20.6074V35.2475H163.806V34.3529C163.806 34.2082 163.863 34.0694 163.965 33.9671C164.068 33.8647 164.207 33.8072 164.351 33.8072H185.473C185.546 33.8042 185.62 33.8161 185.688 33.8422C185.757 33.8682 185.82 33.908 185.873 33.9589C185.926 34.0099 185.968 34.0711 185.997 34.1388C186.026 34.2065 186.041 34.2794 186.041 34.3529V35.2475H189.32V16.9306H171.727C171.665 16.9294 171.605 16.9069 171.557 16.8669C171.509 16.8268 171.477 16.7716 171.465 16.7105C171.453 16.6493 171.462 16.5858 171.491 16.5307C171.52 16.4755 171.567 16.432 171.624 16.4073C173.647 15.5659 175.622 14.6163 177.542 13.5625C177.972 13.3275 178.453 13.203 178.942 13.2001H191.229ZM163.806 30.1349V27.3214C163.806 27.1767 163.863 27.0379 163.965 26.9355C164.068 26.8332 164.207 26.7757 164.351 26.7757H185.473C185.546 26.7727 185.62 26.7846 185.688 26.8106C185.757 26.8367 185.82 26.8764 185.873 26.9274C185.926 26.9784 185.968 27.0396 185.997 27.1073C186.026 27.175 186.041 27.2478 186.041 27.3214V30.1349C186.041 30.2801 185.983 30.4193 185.881 30.5224C185.779 30.6254 185.64 30.6839 185.495 30.6851H164.351C164.279 30.6851 164.208 30.6708 164.141 30.6431C164.075 30.6154 164.015 30.5748 163.964 30.5237C163.913 30.4725 163.873 30.4118 163.846 30.3451C163.819 30.2784 163.805 30.2069 163.806 30.1349V30.1349ZM185.473 23.5507H164.351C164.279 23.5513 164.208 23.5375 164.142 23.5103C164.075 23.4831 164.015 23.4429 163.964 23.3922C163.913 23.3414 163.873 23.281 163.846 23.2145C163.819 23.148 163.805 23.0768 163.806 23.005V20.6477C163.805 20.5759 163.819 20.5046 163.846 20.4382C163.873 20.3717 163.913 20.3113 163.964 20.2605C164.015 20.2097 164.075 20.1695 164.142 20.1423C164.208 20.1151 164.279 20.1014 164.351 20.102H185.473C185.546 20.099 185.62 20.1109 185.688 20.1369C185.757 20.163 185.82 20.2027 185.873 20.2537C185.926 20.3047 185.968 20.3658 185.997 20.4336C186.026 20.5013 186.041 20.5741 186.041 20.6477V23.005C186.041 23.0785 186.026 23.1514 185.997 23.2191C185.968 23.2868 185.926 23.348 185.873 23.399C185.82 23.4499 185.757 23.4896 185.688 23.5157C185.62 23.5418 185.546 23.5537 185.473 23.5507V23.5507ZM175.722 5.65868H182.53C182.586 5.65996 182.64 5.67822 182.685 5.71104C182.731 5.74386 182.765 5.7897 182.784 5.84251C182.803 5.89532 182.806 5.95262 182.791 6.00685C182.777 6.06107 182.746 6.10967 182.704 6.14624C180.915 7.59102 179.228 8.44536 177.059 9.6978C176.638 9.953 176.156 10.0876 175.663 10.0869H175.722C175.577 10.0869 175.438 10.0295 175.336 9.92711C175.233 9.82477 175.176 9.68597 175.176 9.54124V6.20439C175.176 6.05966 175.233 5.92085 175.336 5.81851C175.438 5.71618 175.577 5.65868 175.722 5.65868V5.65868Z" fill="white"/>
<path d="M63.0959 14.8995H72.6055V11.509H63.0959C62.9512 11.509 62.8124 11.4515 62.7101 11.3492C62.6077 11.2468 62.5502 11.108 62.5502 10.9633V6.62003C62.5502 6.4753 62.6077 6.3365 62.7101 6.23416C62.8124 6.13182 62.9512 6.07433 63.0959 6.07433H73.4643V2.6659H48.6616C48.583 2.66612 48.5053 2.64936 48.4337 2.61676C48.3622 2.58416 48.2986 2.5365 48.2472 2.47704C48.1958 2.41758 48.1579 2.34771 48.136 2.27223C48.1141 2.19674 48.1087 2.11742 48.1203 2.03969C48.215 1.36379 48.2658 0.682465 48.2724 0H44.6135C44.5778 1.37892 44.3366 2.74481 43.8978 4.05253C43.0569 6.46348 41.7955 6.89288 39.6708 7.01813V10.6994C42.4173 10.6994 45.3202 9.4738 46.7337 6.9063C46.869 6.65174 47.0704 6.43842 47.3169 6.28884C47.5633 6.13925 47.8455 6.05896 48.1338 6.05643H58.1622C58.2369 6.05394 58.3113 6.06682 58.3808 6.09426C58.4503 6.1217 58.5134 6.16312 58.5663 6.21596C58.6191 6.2688 58.6605 6.33193 58.688 6.40144C58.7154 6.47095 58.7283 6.54535 58.7258 6.62003V10.9812C58.7258 11.1259 58.6683 11.2647 58.566 11.3671C58.4636 11.4694 58.3248 11.5269 58.1801 11.5269H48.4334C47.274 11.5281 46.1625 11.9895 45.343 12.8098C44.5236 13.63 44.0633 14.7421 44.0633 15.9015V24.8609C44.0633 25.0056 44.0058 25.1444 43.9035 25.2468C43.8012 25.3491 43.6623 25.4066 43.5176 25.4066H39.0894V28.8508H58.1801C58.3248 28.8508 58.4636 28.9083 58.566 29.0106C58.6683 29.113 58.7258 29.2518 58.7258 29.3965V35.2114H62.5502V29.3965C62.5502 29.2518 62.6077 29.113 62.7101 29.0106C62.8124 28.9083 62.9512 28.8508 63.0959 28.8508H74.0637V25.4066H63.0959C62.9512 25.4066 62.8124 25.3491 62.7101 25.2468C62.6077 25.1444 62.5502 25.0056 62.5502 24.8609V15.4452C62.5502 15.3005 62.6077 15.1617 62.7101 15.0594C62.8124 14.957 62.9512 14.8995 63.0959 14.8995ZM47.7804 24.8609V16.5367C47.7804 16.1025 47.9529 15.6861 48.2599 15.379C48.5669 15.072 48.9833 14.8995 49.4175 14.8995H58.1801C58.3248 14.8995 58.4636 14.957 58.566 15.0594C58.6683 15.1617 58.7258 15.3005 58.7258 15.4452V24.8609C58.7258 25.0056 58.6683 25.1444 58.566 25.2468C58.4636 25.3491 58.3248 25.4066 58.1801 25.4066H48.3395C48.2666 25.409 48.1939 25.3967 48.1258 25.3703C48.0578 25.3439 47.9958 25.304 47.9436 25.253C47.8913 25.202 47.8499 25.141 47.8219 25.0736C47.7939 25.0062 47.7797 24.9339 47.7804 24.8609Z" fill="white"/>
<path d="M24.2166 5.49789C25.2169 6.60618 26.1334 7.78733 26.9585 9.03155C27.6301 9.99861 27.9735 11.1558 27.9381 12.3326C27.854 14.8732 27.3178 17.3785 26.3547 19.731C24.7041 23.9043 22.4766 26.1318 17.8828 28.3504C13.1414 30.6361 6.86134 30.8553 2.01709 30.8553V34.5679C7.14762 34.5679 13.7184 34.3308 19.0592 32.0541C27.5579 28.422 30.188 22.0167 30.9887 16.4523C31.0043 16.34 31.0545 16.2355 31.1322 16.1531C31.21 16.0707 31.3115 16.0145 31.4226 15.9924C31.5337 15.9702 31.649 15.9832 31.7524 16.0296C31.8557 16.0759 31.9421 16.1533 31.9996 16.251C32.8405 17.6734 33.5249 18.9348 33.9185 19.7488L37.1167 18.3085C35.6406 15.1774 30.2864 6.49536 27.1195 3.24797L24.2166 5.49789Z" fill="white"/>
<path d="M8.91016 23.919H15.8433C17.002 23.9178 18.1128 23.457 18.9321 22.6377C19.7514 21.8184 20.2122 20.7075 20.2134 19.5488V0.140518H16.3353V18.6185C16.3353 18.8338 16.2928 19.0471 16.2103 19.246C16.1277 19.4449 16.0067 19.6256 15.8542 19.7777C15.7018 19.9297 15.5208 20.0502 15.3216 20.1322C15.1225 20.2143 14.9091 20.2562 14.6937 20.2556H8.91016V23.919Z" fill="white"/>
<path d="M11.1467 5.03847L7.56831 3.93812C6.22641 8.79132 3.89598 13.0138 0 17.63L2.99243 19.8665C7.1881 14.9014 9.7064 10.33 11.1467 5.03847Z" fill="white"/>
<path d="M4.9338 43.7102V50.8312H6.79457V43.7102C6.79457 43.6062 6.81505 43.5033 6.85484 43.4072C6.89462 43.3112 6.95294 43.2239 7.02646 43.1504C7.09998 43.0768 7.18726 43.0185 7.28331 42.9787C7.37937 42.9389 7.48231 42.9185 7.58628 42.9185H10.0912V41.3574H1.63721V42.9185H4.14208C4.35206 42.9185 4.55344 43.0019 4.70191 43.1504C4.85039 43.2988 4.9338 43.5002 4.9338 43.7102Z" fill="white"/>
<path d="M14.7252 45.146C14.6215 45.146 14.5187 45.1255 14.4229 45.0857C14.3271 45.0458 14.2401 44.9874 14.167 44.9139C14.0938 44.8403 14.0359 44.753 13.9966 44.6569C13.9573 44.5609 13.9374 44.4581 13.938 44.3543V41.3574H12.0728V50.8312H13.938V47.4988C13.938 47.3954 13.9584 47.2931 13.9979 47.1975C14.0375 47.102 14.0955 47.0152 14.1686 46.9421C14.2417 46.869 14.3285 46.8111 14.424 46.7715C14.5195 46.7319 14.6219 46.7116 14.7252 46.7116H17.5298C17.6336 46.711 17.7364 46.7309 17.8324 46.7702C17.9285 46.8095 18.0158 46.8674 18.0894 46.9406C18.1629 47.0137 18.2213 47.1007 18.2612 47.1965C18.301 47.2923 18.3215 47.3951 18.3215 47.4988V50.8312H20.1868V41.3574H18.3036V44.3543C18.3036 44.5643 18.2202 44.7657 18.0717 44.9141C17.9233 45.0626 17.7219 45.146 17.5119 45.146H14.7252Z" fill="white"/>
<path d="M24.6865 48.4784V47.472C24.6865 47.262 24.7699 47.0606 24.9183 46.9121C25.0668 46.7637 25.2682 46.6803 25.4782 46.6803H29.902V45.1326H25.4603C25.3563 45.1326 25.2534 45.1121 25.1573 45.0723C25.0612 45.0325 24.974 44.9742 24.9004 44.9007C24.8269 44.8272 24.7686 44.7399 24.7288 44.6439C24.689 44.5478 24.6686 44.4448 24.6686 44.3409V43.7102C24.6686 43.6062 24.689 43.5033 24.7288 43.4072C24.7686 43.3112 24.8269 43.2239 24.9004 43.1504C24.974 43.0768 25.0612 43.0185 25.1573 42.9787C25.2534 42.9389 25.3563 42.9185 25.4603 42.9185H30.1703V41.3574H22.8257V50.8312H30.3806V49.2656H25.4603C25.2542 49.261 25.058 49.1761 24.9135 49.0291C24.769 48.8821 24.6876 48.6845 24.6865 48.4784V48.4784Z" fill="white"/>
<path d="M43.017 48.1071C43.0409 47.9853 43.1115 47.8777 43.2138 47.8074C43.6728 47.4973 44.0482 47.0787 44.3064 46.5886C44.5647 46.0986 44.698 45.5523 44.6944 44.9984C44.6944 42.7619 43.026 41.3574 40.4495 41.3574H36.4238V50.8312H38.2846V49.4177C38.2858 49.2081 38.3696 49.0074 38.5178 48.8592C38.666 48.711 38.8667 48.6272 39.0763 48.626H40.2796C40.4093 48.626 40.5435 48.626 40.6821 48.626C40.8273 48.6101 40.974 48.6342 41.1065 48.6957C41.2389 48.7572 41.3521 48.8537 41.4336 48.9749L42.6637 50.8491H44.7839L43.102 48.465C43.0633 48.4148 43.0357 48.3569 43.021 48.2952C43.0064 48.2335 43.005 48.1694 43.017 48.1071ZM40.5211 47.0649H39.0674C38.8574 47.0649 38.656 46.9815 38.5075 46.833C38.3591 46.6846 38.2756 46.4832 38.2756 46.2732V43.6923C38.2768 43.4831 38.3608 43.2829 38.5091 43.1354C38.6575 42.9878 38.8582 42.905 39.0674 42.905H40.539C40.8236 42.8864 41.109 42.9263 41.3776 43.0224C41.6461 43.1185 41.8921 43.2686 42.1003 43.4636C42.3085 43.6586 42.4744 43.8942 42.5879 44.1559C42.7013 44.4176 42.7599 44.6998 42.7599 44.985C42.7599 45.2702 42.7013 45.5524 42.5879 45.8141C42.4744 46.0758 42.3085 46.3114 42.1003 46.5064C41.8921 46.7014 41.6461 46.8515 41.3776 46.9476C41.109 47.0437 40.8236 47.0836 40.539 47.0649H40.5211Z" fill="white"/>
<path d="M48.8988 48.4784V47.472C48.8988 47.262 48.9823 47.0606 49.1307 46.9121C49.2792 46.7637 49.4806 46.6803 49.6906 46.6803H54.1144V45.1326H49.6906C49.4806 45.1326 49.2792 45.0492 49.1307 44.9007C48.9823 44.7522 48.8988 44.5509 48.8988 44.3409V43.7102C48.8988 43.5002 48.9823 43.2988 49.1307 43.1504C49.2792 43.0019 49.4806 42.9185 49.6906 42.9185H54.3962V41.3574H47.0381V50.8312H54.6064V49.2656H49.6861C49.5827 49.2656 49.4803 49.2453 49.3848 49.2057C49.2893 49.1662 49.2025 49.1082 49.1294 49.0351C49.0563 48.962 48.9983 48.8752 48.9588 48.7797C48.9192 48.6842 48.8988 48.5818 48.8988 48.4784Z" fill="white"/>
<path d="M56.9458 41.3574V50.8312H58.811V49.4043C58.8104 49.3005 58.8304 49.1977 58.8697 49.1017C58.909 49.0056 58.9669 48.9183 59.04 48.8447C59.1132 48.7712 59.2002 48.7128 59.296 48.6729C59.3918 48.6331 59.4945 48.6126 59.5983 48.6126H60.9804C63.5569 48.6126 65.2253 47.1902 65.2253 44.985C65.2253 42.7798 63.5658 41.3574 60.9939 41.3574H56.9458ZM63.2572 44.985C63.2595 45.2662 63.204 45.5449 63.0942 45.8038C62.9844 46.0627 62.8225 46.2962 62.6187 46.49C62.4149 46.6838 62.1734 46.8336 61.9093 46.9302C61.6452 47.0268 61.3641 47.0681 61.0833 47.0515H59.5983C59.3891 47.0503 59.1889 46.9664 59.0413 46.818C58.8938 46.6697 58.811 46.469 58.811 46.2598V43.7102C58.8104 43.6064 58.8304 43.5036 58.8697 43.4075C58.909 43.3115 58.9669 43.2242 59.04 43.1506C59.1132 43.077 59.2002 43.0187 59.296 42.9788C59.3918 42.939 59.4945 42.9185 59.5983 42.9185H61.1012C61.3808 42.9031 61.6606 42.9454 61.9232 43.0426C62.1857 43.1399 62.4255 43.2901 62.6277 43.4838C62.8298 43.6776 62.99 43.9108 63.0983 44.169C63.2066 44.4273 63.2607 44.705 63.2572 44.985V44.985Z" fill="white"/>
<path d="M71.8499 41.2056C70.8863 41.2294 69.9511 41.537 69.1615 42.0898C68.3719 42.6426 67.763 43.4161 67.411 44.3135C67.059 45.2108 66.9796 46.192 67.1828 47.1343C67.3859 48.0765 67.8625 48.9379 68.553 49.6105C69.2434 50.2831 70.117 50.737 71.0642 50.9154C72.0114 51.0938 72.9903 50.9887 73.8781 50.6133C74.7659 50.238 75.5232 49.609 76.0551 48.8052C76.5871 48.0014 76.8701 47.0585 76.8686 46.0946C76.8744 45.4399 76.7476 44.7908 76.4958 44.1865C76.244 43.5821 75.8724 43.0351 75.4035 42.5782C74.9345 42.1214 74.3779 41.7642 73.7671 41.5283C73.1564 41.2924 72.5042 41.1826 71.8499 41.2056V41.2056ZM71.8499 49.3286C71.2039 49.3644 70.5619 49.2056 70.0071 48.8727C69.4523 48.5398 69.0101 48.0481 68.7376 47.4612C68.4652 46.8743 68.3751 46.2192 68.4789 45.5806C68.5828 44.9419 68.8758 44.3491 69.3201 43.8787C69.7645 43.4084 70.3396 43.0822 70.9714 42.9422C71.6031 42.8022 72.2622 42.8549 72.8637 43.0935C73.4651 43.3322 73.9811 43.7457 74.345 44.2807C74.7089 44.8157 74.904 45.4476 74.905 46.0946C74.9236 46.5081 74.859 46.9212 74.7152 47.3093C74.5713 47.6975 74.3511 48.0528 74.0675 48.3543C73.7839 48.6558 73.4427 48.8974 73.0641 49.0648C72.6855 49.2321 72.2772 49.3218 71.8633 49.3286H71.8499Z" fill="white"/>
<path d="M85.6442 48.1071C85.6546 48.0463 85.6774 47.9883 85.7113 47.9367C85.7452 47.8851 85.7893 47.8411 85.841 47.8074C86.302 47.4986 86.6793 47.0805 86.9392 46.5903C87.1991 46.1001 87.3336 45.5532 87.3306 44.9984C87.3306 42.7619 85.6666 41.3574 83.0901 41.3574H79.0645V50.8312H80.9252V49.4177C80.9252 49.2077 81.0086 49.0064 81.1571 48.8579C81.3056 48.7094 81.507 48.626 81.7169 48.626H82.9157C83.0499 48.626 83.1841 48.626 83.3227 48.626C83.4673 48.6094 83.6137 48.6333 83.7456 48.6948C83.8774 48.7564 83.9896 48.8534 84.0697 48.9749L85.3043 50.8491H87.4245L85.7426 48.465C85.7016 48.4159 85.6715 48.3585 85.6546 48.2967C85.6376 48.235 85.6341 48.1704 85.6442 48.1071V48.1071ZM83.1617 47.0649H81.708C81.498 47.0649 81.2966 46.9815 81.1482 46.833C80.9997 46.6846 80.9163 46.4832 80.9163 46.2732V43.6923C80.9163 43.5885 80.9368 43.4858 80.9766 43.39C81.0165 43.2942 81.0749 43.2072 81.1484 43.134C81.222 43.0609 81.3093 43.003 81.4053 42.9637C81.5014 42.9244 81.6042 42.9045 81.708 42.905H83.1617C83.4463 42.8864 83.7318 42.9263 84.0003 43.0224C84.2689 43.1185 84.5149 43.2686 84.723 43.4636C84.9312 43.6586 85.0972 43.8942 85.2106 44.1559C85.3241 44.4176 85.3826 44.6998 85.3826 44.985C85.3826 45.2702 85.3241 45.5524 85.2106 45.8141C85.0972 46.0758 84.9312 46.3114 84.723 46.5064C84.5149 46.7014 84.2689 46.8515 84.0003 46.9476C83.7318 47.0437 83.4463 47.0836 83.1617 47.0649V47.0649Z" fill="white"/>
<path d="M91.9021 43.7102V50.8312H93.7628V43.7102C93.7628 43.5002 93.8462 43.2988 93.9947 43.1504C94.1432 43.0019 94.3446 42.9185 94.5545 42.9185H97.0594V41.3574H88.6055V42.9185H91.1103C91.3203 42.9185 91.5217 43.0019 91.6702 43.1504C91.8186 43.2988 91.9021 43.5002 91.9021 43.7102V43.7102Z" fill="white"/>
<path d="M101.014 48.4784V47.472C101.014 47.262 101.097 47.0606 101.245 46.9121C101.394 46.7637 101.595 46.6803 101.805 46.6803H106.229V45.1326H101.805C101.595 45.1326 101.394 45.0492 101.245 44.9007C101.097 44.7522 101.014 44.5509 101.014 44.3409V43.7102C101.014 43.5002 101.097 43.2988 101.245 43.1504C101.394 43.0019 101.595 42.9185 101.805 42.9185H106.515V41.3574H99.1528V50.8312H106.721V49.2656H101.801C101.592 49.2656 101.392 49.1827 101.244 49.0351C101.097 48.8874 101.014 48.6872 101.014 48.4784Z" fill="white"/>
<path d="M115.448 48.1071C115.458 48.0467 115.48 47.9889 115.513 47.9373C115.546 47.8858 115.59 47.8416 115.64 47.8074C116.106 47.5014 116.488 47.0846 116.753 46.5943C117.018 46.104 117.156 45.5556 117.157 44.9984C117.157 42.7619 115.493 41.3574 112.912 41.3574H108.886V50.8312H110.751V49.4177C110.751 49.2077 110.835 49.0064 110.983 48.8579C111.132 48.7094 111.333 48.626 111.543 48.626H112.684C112.818 48.626 112.948 48.626 113.086 48.626C113.232 48.6091 113.379 48.6327 113.511 48.6943C113.644 48.7559 113.757 48.853 113.838 48.9749L115.068 50.8491H117.193L115.506 48.465C115.472 48.4127 115.449 48.3538 115.439 48.2922C115.429 48.2306 115.432 48.1675 115.448 48.1071ZM112.952 47.0649H111.498C111.288 47.0649 111.087 46.9815 110.939 46.833C110.79 46.6846 110.707 46.4832 110.707 46.2732V43.6923C110.707 43.5885 110.727 43.4858 110.767 43.39C110.807 43.2942 110.865 43.2072 110.939 43.134C111.012 43.0609 111.1 43.003 111.196 42.9637C111.292 42.9244 111.395 42.9045 111.498 42.905H112.966C113.25 42.8864 113.536 42.9263 113.804 43.0224C114.073 43.1185 114.319 43.2686 114.527 43.4636C114.735 43.6586 114.901 43.8942 115.014 44.1559C115.128 44.4176 115.186 44.6998 115.186 44.985C115.186 45.2702 115.128 45.5524 115.014 45.8141C114.901 46.0758 114.735 46.3114 114.527 46.5064C114.319 46.7014 114.073 46.8515 113.804 46.9476C113.536 47.0437 113.25 47.0836 112.966 47.0649H112.952Z" fill="white"/>
<path d="M125.656 46.6803H129.27V45.1326H125.656C125.446 45.1326 125.244 45.0492 125.096 44.9007C124.947 44.7522 124.864 44.5509 124.864 44.3409V43.7102C124.864 43.5002 124.947 43.2988 125.096 43.1504C125.244 43.0019 125.446 42.9185 125.656 42.9185H130.035V41.3574H122.994V50.8312H124.859V47.472C124.859 47.3676 124.88 47.2643 124.92 47.168C124.96 47.0716 125.019 46.9841 125.093 46.9106C125.167 46.837 125.255 46.7788 125.351 46.7392C125.448 46.6997 125.551 46.6797 125.656 46.6803Z" fill="white"/>
<path d="M136.225 41.2056C135.261 41.2294 134.326 41.537 133.537 42.0898C132.747 42.6426 132.138 43.4161 131.786 44.3135C131.434 45.2108 131.355 46.192 131.558 47.1343C131.761 48.0765 132.238 48.9379 132.928 49.6105C133.618 50.2831 134.492 50.737 135.439 50.9154C136.386 51.0938 137.365 50.9887 138.253 50.6133C139.141 50.238 139.898 49.609 140.43 48.8052C140.962 48.0014 141.245 47.0585 141.244 46.0946C141.249 45.4399 141.123 44.7908 140.871 44.1865C140.619 43.5821 140.247 43.0351 139.778 42.5782C139.309 42.1214 138.753 41.7642 138.142 41.5283C137.531 41.2924 136.879 41.1826 136.225 41.2056V41.2056ZM136.225 49.3286C135.579 49.3644 134.937 49.2056 134.382 48.8727C133.827 48.5398 133.385 48.0481 133.113 47.4612C132.84 46.8743 132.75 46.2192 132.854 45.5806C132.958 44.9419 133.251 44.3491 133.695 43.8787C134.139 43.4084 134.715 43.0822 135.346 42.9422C135.978 42.8022 136.637 42.8549 137.239 43.0935C137.84 43.3322 138.356 43.7457 138.72 44.2807C139.084 44.8157 139.279 45.4476 139.28 46.0946C139.299 46.5081 139.234 46.9212 139.09 47.3093C138.946 47.6975 138.726 48.0528 138.443 48.3543C138.159 48.6558 137.818 48.8974 137.439 49.0648C137.061 49.2321 136.652 49.3218 136.238 49.3286H136.225Z" fill="white"/>
<path d="M149.635 48.1071C149.659 47.9853 149.729 47.8777 149.832 47.8074C150.293 47.4989 150.671 47.0809 150.932 46.5907C151.193 46.1006 151.328 45.5536 151.326 44.9984C151.326 42.7619 149.657 41.3574 147.081 41.3574H143.055V50.8312H144.889V49.4177C144.889 49.2085 144.972 49.0078 145.119 48.8595C145.267 48.7111 145.467 48.6272 145.676 48.626H146.88C147.009 48.626 147.143 48.626 147.282 48.626C147.427 48.6096 147.574 48.6335 147.707 48.695C147.839 48.7566 147.952 48.8534 148.034 48.9749L149.264 50.8491H151.384L149.702 48.465C149.666 48.4134 149.642 48.3548 149.63 48.2932C149.619 48.2315 149.62 48.1682 149.635 48.1071V48.1071ZM147.126 47.0649H145.667C145.564 47.0649 145.461 47.0444 145.365 47.0046C145.269 46.9647 145.182 46.9063 145.109 46.8328C145.036 46.7592 144.978 46.6719 144.939 46.5758C144.899 46.4798 144.88 46.377 144.88 46.2732V43.6923C144.88 43.4835 144.963 43.2833 145.111 43.1356C145.258 42.988 145.459 42.905 145.667 42.905H147.139C147.424 42.8864 147.709 42.9263 147.978 43.0224C148.246 43.1185 148.492 43.2686 148.7 43.4636C148.909 43.6586 149.074 43.8942 149.188 44.1559C149.301 44.4176 149.36 44.6998 149.36 44.985C149.36 45.2702 149.301 45.5524 149.188 45.8141C149.074 46.0758 148.909 46.3114 148.7 46.5064C148.492 46.7014 148.246 46.8515 147.978 46.9476C147.709 47.0437 147.424 47.0836 147.139 47.0649H147.126Z" fill="white"/>
<path d="M162.879 45.1639L165.809 41.3574H163.64L160.567 45.4278C160.455 45.5754 160.33 45.7499 160.209 45.9198C160.167 45.9841 160.104 46.0326 160.031 46.0577C159.959 46.0828 159.879 46.0831 159.806 46.0585C159.732 46.037 159.667 45.9916 159.621 45.9294C159.575 45.8671 159.55 45.7915 159.552 45.7141V41.3574H157.673V50.8312H159.552V49.7621C159.551 49.4231 159.668 49.0945 159.883 48.8318L160.692 47.8388C160.767 47.7445 160.863 47.6696 160.973 47.6206C161.083 47.5715 161.203 47.5497 161.323 47.557C161.442 47.5602 161.559 47.5915 161.664 47.6482C161.769 47.7049 161.859 47.7855 161.927 47.8835L164.011 50.8312H166.189L162.866 46.2106C162.758 46.0568 162.701 45.873 162.704 45.6851C162.706 45.4972 162.768 45.3149 162.879 45.1639V45.1639Z" fill="white"/>
<path d="M169.911 41.3574H168.033V50.8312H169.911V41.3574Z" fill="white"/>
<path d="M172.846 41.3574V50.8312H176.567C179.457 50.8312 181.559 48.8362 181.559 46.0943C181.559 43.3523 179.457 41.3574 176.567 41.3574H172.846ZM179.555 46.0943C179.577 46.5086 179.513 46.9231 179.365 47.3109C179.218 47.6988 178.991 48.0515 178.699 48.3464C178.407 48.6413 178.056 48.8718 177.67 49.0232C177.284 49.1746 176.87 49.2435 176.455 49.2254H175.561C175.324 49.2254 175.096 49.1311 174.928 48.9634C174.76 48.7956 174.666 48.5681 174.666 48.3308V43.8578C174.666 43.6205 174.76 43.393 174.928 43.2252C175.096 43.0574 175.324 42.9632 175.561 42.9632H176.455C176.872 42.9426 177.288 43.0096 177.676 43.1598C178.065 43.3099 178.418 43.54 178.712 43.8351C179.006 44.1302 179.235 44.4837 179.385 44.8729C179.534 45.262 179.599 45.6781 179.578 46.0943H179.555Z" fill="white"/>
<path d="M186.417 45.0871C185.495 44.8724 184.73 44.6398 184.73 43.9509C184.73 43.1637 185.723 42.9579 186.247 42.9579C187.19 42.9535 188.116 43.2022 188.93 43.6781L189.601 42.2557C188.604 41.6051 187.433 41.2714 186.242 41.2984C183.867 41.2984 182.802 42.6403 182.802 43.9509C182.802 45.8743 184.627 46.4558 186.336 46.8539H186.394C187.226 47.0552 188.085 47.2654 188.085 48.0482C188.085 48.831 187.137 49.2469 186.242 49.2469C185.132 49.269 184.047 48.9178 183.16 48.2495L182.485 49.6764C183.541 50.5381 184.881 50.9765 186.242 50.9064C188.139 50.9064 190.049 50.0118 190.049 48.0482C190.067 46.1874 188.309 45.5344 186.417 45.0871Z" fill="white"/>
</svg>
